# xmcd CD database file
# 
# Track frame offsets:
# 	150
# 	24776
# 	45410
# 	58603
# 	80530
# 	94977
# 	119625
# 	143284
# 	157195
# 	173550
# 	194904
# 
# Disc length: 3115 seconds
# 
# Submitted via: Nero 5.5.9.0
# 
# Revision: 0
# Processed by: cddbd v1.4PL0 Copyright (c) Steve Scherf et al.
#
DISCID=8e0c290b
DTITLE=Various Artist - Larry Joe Taylor's 12th Annual Texas Music Festival
DYEAR=1900
DGENRE=
TTITLE0=Steven Fromholz - I'd Have To Be Crazy
TTITLE1=South By Southwest - The Girl Just Loves To Dance
TTITLE2=Terri Hendrix - The Know How
TTITLE3=Chris Schlotzhauer - Geronimo's Cadillac
TTITLE4=Blind Luck - The Ride
TTITLE5=Davin James - Guadalupe Days
TTITLE6=Rusty Wier - Hot Spot
TTITLE7=Tommy Alverson - Cowboy Mardi Gras
TTITLE8=Ed Burleson - Goin' Home To Texas
TTITLE9=The Groobees - Wide Open Spaces
TTITLE10=Larry Joe Taylor - Third Coast
EXTD=
EXTT0=
EXTT1=
EXTT2=
EXTT3=
EXTT4=
EXTT5=
EXTT6=
EXTT7=
EXTT8=
EXTT9=
EXTT10=
PLAYORDER=
